HIERARCHY
ROOT Hips
{
  OFFSET 263.056 91.6644 -274.608
  CHANNELS 6 Xposition Yposition Zposition Zrotation Xrotation Yrotation
  JOINT LeftUpLeg
  {
    OFFSET 8.64259 1.95398 -2.38835
    CHANNELS 3 Zrotation Xrotation Yrotation
    JOINT LeftLeg
    {
      OFFSET 43.7702 0 0
      CHANNELS 3 Zrotation Xrotation Yrotation
      JOINT LeftFoot
      {
        OFFSET 40.6238 0 0
        CHANNELS 3 Zrotation Xrotation Yrotation
        JOINT LeftToeBase
        {
          OFFSET 12.7242 0 0
          CHANNELS 3 Zrotation Xrotation Yrotation
          End Site
          {
            OFFSET 0 0 0
          }
        }
      }
    }
  }
  JOINT RightUpLeg
  {
    OFFSET -8.2249 1.95398 -2.59336
    CHANNELS 3 Zrotation Xrotation Yrotation
    JOINT RightLeg
    {
      OFFSET 43.5653 0 0
      CHANNELS 3 Zrotation Xrotation Yrotation
      JOINT RightFoot
      {
        OFFSET 40.6238 0 0
        CHANNELS 3 Zrotation Xrotation Yrotation
        JOINT RightToeBase
        {
          OFFSET 12.7242 0 0
          CHANNELS 3 Zrotation Xrotation Yrotation
          End Site
          {
            OFFSET 0 0 0
          }
        }
      }
    }
  }
  JOINT Spine
  {
    OFFSET 0.165834 0.87714 6.61349
    CHANNELS 3 Zrotation Xrotation Yrotation
    JOINT Spine1
    {
      OFFSET 7.38963 1.71661e-005 0
      CHANNELS 3 Zrotation Xrotation Yrotation
      JOINT Spine2
      {
        OFFSET 11.9445 1.14441e-005 0
        CHANNELS 3 Zrotation Xrotation Yrotation
        JOINT Spine3
        {
          OFFSET 14.7254 4.19617e-005 0
          CHANNELS 3 Zrotation Xrotation Yrotation
          JOINT Spine4
          {
            OFFSET 10.9679 0 0
            CHANNELS 3 Zrotation Xrotation Yrotation
            JOINT RightShoulder
            {
              OFFSET 2.46616 -1.6653 3.69651
              CHANNELS 3 Zrotation Xrotation Yrotation
              JOINT RightArm
              {
                OFFSET 13.0012 0 0
                CHANNELS 3 Zrotation Xrotation Yrotation
                JOINT RightForeArm
                {
                  OFFSET 28.7848 1.52588e-005 0
                  CHANNELS 3 Zrotation Xrotation Yrotation
                  JOINT RightHand
                  {
                    OFFSET 26.5688 1.52588e-005 0
                    CHANNELS 3 Zrotation Xrotation Yrotation
                    End Site
                    {
                      OFFSET 0 0 0
                    }
                  }
                }
              }
            }
            JOINT LeftShoulder
            {
              OFFSET 2.38034 -1.29275 -3.7523
              CHANNELS 3 Zrotation Xrotation Yrotation
              JOINT LeftArm
              {
                OFFSET 16.3182 6.10352e-005 0
                CHANNELS 3 Zrotation Xrotation Yrotation
                JOINT LeftForeArm
                {
                  OFFSET 27.0901 0 0
                  CHANNELS 3 Zrotation Xrotation Yrotation
                  JOINT LeftHand
                  {
                    OFFSET 24.5451 1.52588e-005 0
                    CHANNELS 3 Zrotation Xrotation Yrotation
                    End Site
                    {
                      OFFSET 0 0 0
                    }
                  }
                }
              }
            }
            JOINT Neck
            {
              OFFSET 5.0226 -0.0266342 0
              CHANNELS 3 Zrotation Xrotation Yrotation
              JOINT Head
              {
                OFFSET 6.69364 2.86102e-005 0
                CHANNELS 3 Zrotation Xrotation Yrotation
                End Site
                {
                  OFFSET 0 0 0
                }
              }
            }
          }
        }
      }
    }
  }
}
MOTION
Frames:	12
Frame Time:	0.0416667
-54.4177 97.3103 45.7413 -99.0844 -86.071 -98.4443 -171.93 4.15707 91.62 -8.93203 6.93473 -0.247711 60.4466 2.90548 8.91343 31.2912 3.7858 -17.8151 177.504 3.23493 89.5005 -9.85971 5.45596 -0.795787 63.2572 -1.48893 -0.808221 29.2828 -0.552574 9.94108 -0.18124 7.06046 -89.9639 12.7532 -0.342633 0.11276 1.08227 -0.337338 0.127727 -21.4533 -0.360682 0.0045665 -1.44061 -0.360685 0.00456702 79.849 -51.7195 -115.437 23.5878 -12.2307 3.18146 -3.36586 -14.3591 -36.4331 -7.7945 -0.697318 4.59725 -103.264 -42.8409 56.1588 -28.8962 10.1138 4.40889 2.91907 9.65621 -29.2363 12.0066 1.01588 4.38427 3.80439 -24.6213 2.84499 -8.38637 -24.4604 -7.57541 
-54.4011 97.3054 45.8233 -98.3483 -86.2516 -97.6771 -171.923 4.21988 91.6563 -8.91756 7.16741 -0.272729 60.3123 2.8518 9.14553 31.6782 4.13425 -18.5998 177.46 3.20861 89.4978 -9.7616 5.65363 -0.716879 63.3482 -1.53177 -0.835214 29.38 -0.547223 10.0965 -0.164169 7.04635 -89.9705 12.7813 -0.311873 0.0961151 1.11043 -0.307337 0.109737 -21.425 -0.326345 -0.00205531 -1.41238 -0.326346 -0.00207123 79.6991 -52.1535 -115.485 23.4241 -12.2791 3.3023 -3.42811 -14.7308 -36.3328 -8.64057 -0.760558 4.62303 -103.387 -42.7438 55.9265 -28.7554 10.0214 4.44866 2.88794 9.4142 -29.2448 11.06 0.960213 4.53288 4.91532 -18.3718 1.72616 -6.75146 -18.2658 -4.7093 
-54.3988 97.2933 45.8834 -97.2788 -86.3403 -96.6481 -171.902 4.09474 91.6292 -8.58286 7.20415 -0.31979 60.2665 2.98096 9.23935 31.7272 4.19008 -18.998 177.493 3.78362 89.4636 -10.7836 5.78914 -0.775497 63.0777 -1.19141 -0.621212 29.8108 -0.489935 10.2627 -0.134699 7.01927 -89.9787 12.8354 -0.257212 0.0734211 1.16452 -0.253736 0.0846579 -21.3708 -0.267394 -0.00728049 -1.35819 -0.267386 -0.00727717 79.7554 -52.2065 -115.383 23.5367 -12.1399 3.43889 -3.78579 -14.9301 -36.3757 -8.69026 -0.758151 4.51281 -103.114 -42.5769 56.2632 -28.96 10.1018 4.19585 2.99495 9.86936 -29.1077 11.671 0.937108 3.9675 6.37337 -12.8634 0.818271 -7.05429 -12.7206 -2.67895 
-54.4152 97.2972 45.9297 -97.4017 -86.5676 -96.784 -171.95 4.18898 91.6087 -8.73789 7.35819 -0.283733 60.2811 2.92778 9.14169 31.6172 4.08531 -18.5939 177.449 3.41261 89.4658 -10.1823 5.95885 -0.722686 63.3131 -1.41469 -0.759663 29.2864 -0.559889 10.0925 -0.110451 7.00745 -90.0065 12.859 -0.222374 0.0137744 1.18806 -0.22155 0.0235437 -21.3472 -0.216232 -0.0536954 -1.33459 -0.216242 -0.0537043 79.9471 -51.8938 -115.227 23.7893 -11.8402 3.55248 -3.78652 -14.7279 -36.4946 -8.41972 -0.753959 4.76714 -102.918 -42.8117 56.6737 -28.7994 10.224 3.7569 2.97159 9.99927 -29.1115 12.1264 1.03625 4.47276 7.06992 -8.42018 0.960718 -7.09434 -8.42077 -1.24655 
-54.426 97.3014 45.9663 -98.5586 -86.7847 -97.9275 -171.941 4.18988 91.6415 -8.79582 7.65156 -0.296631 60.3533 2.96015 9.03318 31.7926 4.21144 -18.2146 177.384 3.19685 89.4651 -9.90285 6.2021 -0.627001 63.4592 -1.548 -0.844652 29.1066 -0.608837 10.4317 -0.0995789 6.98905 -90.0257 12.8958 -0.209991 -0.026095 1.22485 -0.210942 -0.0168439 -21.3104 -0.192442 -0.0880064 -1.29778 -0.192444 -0.0880126 79.6978 -51.733 -115.651 23.7985 -11.6464 3.88873 -3.37804 -14.6251 -36.3813 -8.80768 -0.759888 4.43869 -103.02 -42.9054 56.5611 -29.0129 9.78197 4.00786 3.48396 10.4283 -29.3995 11.0385 0.961732 4.56221 7.21785 -4.69546 1.32969 -7.18141 -4.85568 -0.70107 
-54.4449 97.3165 45.9677 -100.12 -86.9625 -99.5098 -171.924 4.08321 91.6581 -8.68819 7.54087 -0.282855 60.5023 3.09338 8.71042 31.2196 3.75695 -18.4327 177.36 4.24535 89.4877 -11.8617 7.72246 -0.542764 62.7106 -0.801682 -0.376219 30.5152 -0.46385 11.8902 -0.0934438 6.99358 -90.0272 12.8891 -0.198557 -0.0304845 1.21819 -0.199716 -0.0217165 -21.3171 -0.180223 -0.088748 -1.30442 -0.180225 -0.0887575 79.8306 -51.774 -115.442 23.5995 -11.665 3.68541 -2.87912 -14.2178 -36.1623 -8.98349 -0.6711 2.95529 -103.29 -43.0964 56.2397 -28.8839 9.6731 4.10579 3.24459 9.87381 -29.1589 10.6938 0.907283 4.3264 7.40505 -1.96697 0.691231 -6.9949 -2.09775 0.849197 
-54.444 97.3082 45.969 -99.3745 -87.005 -98.7606 -171.937 4.10332 91.6551 -8.56402 7.84421 -0.315645 60.1308 2.96198 9.19175 31.9709 4.3692 -18.5641 177.408 4.04565 89.4907 -11.4478 7.3179 -0.613 62.8775 -0.946614 -0.467822 30.2124 -0.493365 11.4906 -0.0635329 6.99723 -90.0199 12.8942 -0.135642 -0.0234071 1.2233 -0.136542 -0.0174195 -21.3119 -0.122337 -0.0630918 -1.29926 -0.122343 -0.0630979 79.9846 -51.885 -115.176 23.6267 -11.5677 3.43247 -3.09177 -14.7496 -36.3641 -8.32527 -0.691568 3.87932 -103.183 -43.1877 56.4455 -28.8259 9.79087 3.99994 3.21582 10.1569 -28.91 10.7912 0.872479 3.96408 7.53731 0.360088 0.0241361 -6.42163 0.277253 2.61047 
-54.465 97.3182 45.9678 -99.0409 -87.0915 -98.4035 -171.913 4.1498 91.6975 -8.5669 7.94619 -0.31134 60.1878 2.86064 9.21116 31.7845 4.24252 -19.1802 177.406 3.92316 89.4991 -11.2181 7.00579 -0.613854 62.8729 -1.00789 -0.50636 30.0525 -0.49852 11.1017 -0.0430885 6.999 -90.0343 12.8785 -0.101967 -0.0563787 1.20751 -0.104353 -0.0518342 -21.3277 -0.0803095 -0.0844134 -1.31501 -0.080316 -0.0844201 80.015 -51.8904 -115.13 23.4916 -11.6199 3.36164 -3.58001 -14.6637 -36.2081 -8.46145 -0.715127 4.09867 -103.046 -43.307 56.7087 -28.8261 9.8974 3.84764 3.18182 10.2177 -28.8917 10.7284 0.839604 3.71677 8.42125 2.55242 1.10108 -6.80312 2.21331 1.7965 
-54.5066 97.2904 45.9332 -99.1192 -87.1357 -98.5027 -171.903 3.99523 91.7089 -8.32367 7.92144 -0.314036 60.3088 2.74814 8.19033 31.7845 4.14181 -16.6394 177.412 3.67224 89.5076 -10.7687 6.79793 -0.630626 63.1556 -1.22717 -0.642728 29.8077 -0.515156 10.6925 -0.0339664 6.99593 -90.0276 12.882 -0.0805882 -0.045411 1.21105 -0.0825096 -0.0418375 -21.3241 -0.0632255 -0.0675398 -1.31146 -0.0632174 -0.0675371 79.5083 -52.2283 -115.732 23.2438 -11.7477 3.7362 -2.81372 -13.9334 -36.4003 -9.55118 -0.758076 3.72038 -102.942 -43.2802 56.8551 -28.9664 9.8689 4.00311 3.3075 10.2398 -29.1803 10.4508 0.816902 3.69196 9.06387 3.59957 0.774818 -6.25981 3.33016 1.0323 
-54.6784 97.3115 45.8323 -103.151 -87.5555 -102.661 -171.809 4.14841 91.7665 -8.48556 8.40512 -0.454148 60.1693 2.80973 8.8298 31.6605 4.10867 -18.3283 177.465 3.01998 89.541 -9.80261 6.87596 -0.723328 63.6463 -1.61668 -0.88275 28.9636 -0.620704 10.2651 -0.0544721 7.02823 -90.0219 12.8175 -0.11861 -0.0295817 1.14651 -0.119793 -0.0243411 -21.3887 -0.104238 -0.0638611 -1.37604 -0.104235 -0.0638623 79.6479 -52.1296 -115.568 23.4827 -11.6123 3.76845 -2.68497 -14.1188 -36.3295 -9.58061 -0.741218 3.4622 -103.042 -43.2655 56.6963 -29.0414 9.5806 3.8907 3.57355 10.6711 -28.9977 10.4269 0.807316 3.62148 9.06514 3.82634 0.685937 -1.09681 3.61042 1.19489 
-54.6416 97.3022 45.8635 -102.492 -87.6404 -102.01 -171.804 4.12188 91.7466 -8.36792 8.67568 -0.500403 60.1238 2.9025 9.13883 31.3817 3.89072 -18.493 177.421 3.0182 89.5036 -9.75651 6.90607 -0.689661 63.4743 -1.52254 -0.824526 29.2271 -0.574892 10.1749 -0.0224391 7.04921 -90.0384 12.7755 -0.0628674 -0.069145 1.10453 -0.0658477 -0.0663085 -21.4306 -0.0391847 -0.0848384 -1.41798 -0.0391844 -0.0848434 79.9986 -52.0404 -115.096 23.5868 -11.6082 3.68986 -3.08025 -14.7171 -36.0846 -8.91423 -0.751099 4.18129 -103.503 -43.3448 56.0346 -28.8758 9.57531 3.99039 3.50699 10.4391 -29.1276 10.5565 0.852406 3.93794 10.5433 3.38206 1.24799 3.71951 2.98419 -0.242834 
-54.6978 97.3077 45.9034 -101.638 -87.8318 -101.276 -171.824 4.10704 91.6692 -8.16696 8.98612 -0.553652 59.7355 2.71602 9.37772 31.8373 4.26727 -18.727 177.361 3.37381 89.404 -10.3566 7.19202 -0.655692 63.4466 -1.36949 -0.730678 29.5412 -0.537757 10.3618 -0.0360308 7.06476 -90.0106 12.7443 -0.0765853 -0.0120052 1.07339 -0.0770267 -0.00863135 -21.4618 -0.0694315 -0.0344633 -1.44913 -0.0694347 -0.0344684 79.6967 -52.3263 -115.422 23.3874 -11.5409 3.67968 -3.25438 -14.5021 -36.0542 -8.96308 -0.738858 3.96297 -103.632 -43.2037 55.7729 -28.7786 9.84303 4.08656 3.16686 10.0572 -28.9789 10.6466 0.866349 4.00122 12.2309 2.81729 0.691256 8.69844 2.50479 -0.571695 
